<svg id="svg" version="1.1" xmlns="http://www.w3.org/2000/svg" xmlns:xlink="http://www.w3.org/1999/xlink" width="400" height="52.07012308839985" viewBox="0, 0, 400,52.07012308839985"><g id="svgg"><path id="path2" d="M205.559 7.917 C 205.559 8.742,205.587 9.100,205.622 8.713 C 205.657 8.327,205.657 7.652,205.623 7.213 C 205.588 6.775,205.560 7.092,205.559 7.917 M154.067 11.833 C 154.067 13.254,154.093 13.835,154.124 13.125 C 154.155 12.415,154.155 11.252,154.124 10.542 C 154.093 9.831,154.067 10.412,154.067 11.833 M272.408 14.833 C 272.408 17.904,272.431 19.160,272.458 17.625 C 272.486 16.090,272.486 13.577,272.458 12.042 C 272.431 10.506,272.408 11.762,272.408 14.833 M281.734 11.833 C 281.734 13.254,281.759 13.835,281.791 13.125 C 281.822 12.415,281.822 11.252,281.791 10.542 C 281.759 9.831,281.734 10.412,281.734 11.833 M163.576 16.583 C 163.576 20.342,163.598 21.903,163.625 20.053 C 163.652 18.203,163.652 15.128,163.625 13.219 C 163.598 11.311,163.576 12.825,163.576 16.583 M245.742 17.583 C 245.742 20.792,245.764 22.081,245.791 20.448 C 245.819 18.815,245.819 16.190,245.791 14.614 C 245.764 13.039,245.742 14.375,245.742 17.583 M205.564 18.250 C 205.564 19.350,205.591 19.778,205.624 19.202 C 205.656 18.625,205.656 17.725,205.623 17.202 C 205.590 16.678,205.563 17.150,205.564 18.250 M154.069 20.500 C 154.069 22.104,154.094 22.760,154.124 21.958 C 154.155 21.156,154.155 19.844,154.124 19.042 C 154.094 18.240,154.069 18.896,154.069 20.500 M281.736 20.583 C 281.736 22.233,281.761 22.886,281.791 22.033 C 281.821 21.181,281.821 19.831,281.791 19.033 C 281.760 18.236,281.735 18.933,281.736 20.583 " stroke="none" fill="#ec842c" fill-rule="evenodd"></path><path id="path3" d="M33.244 25.167 C 33.244 29.704,33.265 31.560,33.292 29.292 C 33.318 27.023,33.318 23.310,33.292 21.042 C 33.265 18.773,33.244 20.629,33.244 25.167 M92.577 40.333 C 92.577 45.054,92.599 46.985,92.625 44.625 C 92.651 42.265,92.651 38.402,92.625 36.042 C 92.599 33.681,92.577 35.612,92.577 40.333 M159.576 38.833 C 159.576 42.729,159.598 44.323,159.625 42.375 C 159.651 40.427,159.651 37.240,159.625 35.292 C 159.598 33.344,159.576 34.938,159.576 38.833 M74.576 38.833 C 74.576 42.637,74.598 44.194,74.625 42.292 C 74.652 40.390,74.652 37.277,74.625 35.375 C 74.598 33.473,74.576 35.029,74.576 38.833 M128.224 33.250 C 128.224 33.983,128.254 34.263,128.289 33.871 C 128.324 33.479,128.324 32.879,128.288 32.537 C 128.252 32.196,128.223 32.517,128.224 33.250 M276.411 40.417 C 276.411 45.092,276.432 47.028,276.458 44.720 C 276.484 42.412,276.484 38.587,276.458 36.220 C 276.432 33.853,276.411 35.742,276.411 40.417 M132.908 40.333 C 132.908 43.404,132.931 44.660,132.958 43.125 C 132.986 41.590,132.986 39.077,132.958 37.542 C 132.931 36.006,132.908 37.262,132.908 40.333 M192.730 36.917 C 192.731 38.017,192.758 38.445,192.790 37.868 C 192.823 37.292,192.823 36.392,192.790 35.868 C 192.757 35.345,192.730 35.817,192.730 36.917 M113.742 43.167 C 113.742 46.421,113.764 47.752,113.791 46.125 C 113.819 44.498,113.819 41.835,113.791 40.208 C 113.764 38.581,113.742 39.912,113.742 43.167 M128.225 47.500 C 128.225 48.279,128.254 48.598,128.289 48.208 C 128.324 47.819,128.324 47.181,128.289 46.792 C 128.254 46.402,128.225 46.721,128.225 47.500 " stroke="none" fill="#fcac14" fill-rule="evenodd"></path><path id="path4" d="M290.400 11.833 C 290.400 13.254,290.426 13.835,290.457 13.125 C 290.488 12.415,290.488 11.252,290.457 10.542 C 290.426 9.831,290.400 10.412,290.400 11.833 M16.577 24.917 C 16.577 29.408,16.599 31.222,16.625 28.947 C 16.651 26.672,16.651 22.997,16.625 20.780 C 16.599 18.564,16.577 20.425,16.577 24.917 M290.402 20.500 C 290.402 22.104,290.427 22.760,290.457 21.958 C 290.488 21.156,290.488 19.844,290.457 19.042 C 290.427 18.240,290.402 18.896,290.402 20.500 M140.892 33.250 C 140.892 34.075,140.920 34.434,140.955 34.047 C 140.990 33.660,140.990 32.985,140.956 32.547 C 140.922 32.109,140.893 32.425,140.892 33.250 M20.875 33.458 C 23.144 33.484,26.856 33.484,29.125 33.458 C 31.394 33.432,29.538 33.411,25.000 33.411 C 20.462 33.411,18.606 33.432,20.875 33.458 M140.892 47.417 C 140.892 48.242,140.920 48.600,140.955 48.213 C 140.990 47.827,140.990 47.152,140.956 46.713 C 140.922 46.275,140.893 46.592,140.892 47.417 " stroke="none" fill="#f49034" fill-rule="evenodd"></path><path id="path0" d="M16.628 25.183 C 16.603 29.775,16.640 33.567,16.708 33.609 C 16.777 33.652,16.833 33.607,16.833 33.510 C 16.833 33.388,19.362 33.333,24.997 33.333 L 33.161 33.333 33.205 25.083 L 33.250 16.833 24.961 16.833 L 16.673 16.833 16.628 25.183 M59.566 32.066 C 57.977 32.806,58.000 32.665,58.000 41.469 L 58.000 49.000 59.583 49.000 L 61.167 49.000 61.167 45.502 L 61.167 42.004 67.042 41.960 L 72.917 41.917 72.964 40.292 L 73.012 38.667 67.089 38.667 L 61.167 38.667 61.167 36.750 L 61.167 34.833 67.083 34.833 L 73.000 34.833 73.000 33.250 L 73.000 31.667 66.708 31.668 C 60.435 31.670,60.414 31.671,59.566 32.066 M74.666 31.708 C 74.557 38.576,74.685 46.718,74.908 47.149 C 75.848 48.968,76.113 49.030,82.587 48.967 L 87.758 48.917 88.479 48.250 C 89.724 47.099,89.667 47.535,89.667 39.175 L 89.667 31.667 88.083 31.667 L 86.500 31.667 86.500 38.750 L 86.500 45.833 82.167 45.833 L 77.833 45.833 77.833 38.750 L 77.833 31.667 76.250 31.667 C 75.379 31.667,74.666 31.685,74.666 31.708 M92.667 40.333 L 92.667 49.000 94.250 49.000 L 95.833 49.000 95.833 45.583 L 95.833 42.167 97.042 42.168 C 98.180 42.169,98.266 42.195,98.530 42.626 C 98.684 42.878,99.527 44.021,100.404 45.167 C 101.281 46.313,102.112 47.400,102.251 47.583 C 102.390 47.767,102.696 48.160,102.933 48.458 L 103.363 49.000 105.422 49.000 C 107.893 49.000,107.923 48.979,107.022 47.867 C 106.271 46.938,104.072 43.940,103.774 43.438 C 103.604 43.151,103.305 42.767,103.110 42.583 L 102.755 42.250 104.086 42.149 C 107.272 41.907,107.730 41.178,107.639 36.482 L 107.583 33.583 107.086 32.933 C 106.132 31.686,106.058 31.674,98.958 31.670 L 92.667 31.667 92.667 40.333 M110.540 40.292 L 110.583 48.917 112.125 48.965 L 113.667 49.013 113.667 43.161 C 113.667 38.473,113.708 37.353,113.875 37.530 C 114.257 37.934,116.580 41.065,116.816 41.494 C 116.944 41.726,117.098 41.954,117.159 42.000 C 117.365 42.156,119.435 44.915,119.754 45.458 C 119.929 45.756,120.118 46.000,120.173 46.000 C 120.229 46.000,120.715 46.619,121.253 47.375 C 122.476 49.095,122.297 48.994,124.125 48.997 L 125.667 49.000 125.667 40.333 L 125.667 31.667 124.083 31.667 L 122.500 31.667 122.487 37.542 C 122.480 40.773,122.431 43.304,122.378 43.167 C 122.325 43.029,122.031 42.656,121.724 42.338 C 121.417 42.019,121.123 41.625,121.071 41.463 C 121.020 41.300,120.895 41.167,120.794 41.167 C 120.694 41.167,120.658 41.120,120.714 41.063 C 120.771 41.007,120.727 40.869,120.617 40.758 C 120.507 40.646,120.079 40.082,119.667 39.504 C 119.254 38.925,118.710 38.235,118.458 37.970 C 118.206 37.705,118.000 37.416,118.000 37.328 C 118.000 37.239,117.866 37.032,117.701 36.868 C 117.537 36.704,117.068 36.116,116.660 35.561 C 116.251 35.007,115.429 33.904,114.834 33.110 L 113.751 31.667 112.124 31.667 L 110.497 31.667 110.540 40.292 M128.326 31.750 C 128.322 31.796,128.315 32.490,128.310 33.292 L 128.303 34.750 130.651 34.796 L 133.000 34.842 133.000 40.338 L 133.000 45.833 130.566 45.833 C 128.414 45.833,128.143 45.864,128.232 46.097 C 128.288 46.242,128.333 46.954,128.333 47.680 L 128.333 49.000 134.572 49.000 L 140.810 49.000 140.864 47.416 L 140.917 45.833 138.542 45.833 L 136.167 45.833 136.167 40.333 L 136.167 34.833 138.500 34.833 L 140.833 34.833 140.833 33.250 L 140.833 31.667 134.583 31.667 C 131.146 31.667,128.330 31.704,128.326 31.750 M142.500 33.248 L 142.500 34.833 145.415 34.833 L 148.330 34.833 148.373 41.875 L 148.417 48.917 150.042 48.964 L 151.667 49.012 151.667 41.923 L 151.667 34.833 154.673 34.833 L 157.679 34.833 157.631 33.292 L 157.583 31.750 150.042 31.707 L 142.500 31.663 142.500 33.248 M159.628 38.875 C 159.562 49.484,159.208 49.000,167.042 49.000 C 175.201 49.000,174.802 49.523,174.817 38.792 L 174.826 31.667 173.163 31.667 L 171.500 31.667 171.500 38.750 L 171.500 45.833 167.167 45.833 L 162.833 45.833 162.833 38.750 L 162.833 31.667 161.253 31.667 L 159.674 31.667 159.628 38.875 M177.667 40.333 L 177.667 49.000 179.250 49.000 L 180.833 49.000 180.833 45.576 L 180.833 42.153 182.094 42.201 C 183.300 42.248,183.368 42.272,183.636 42.748 C 183.790 43.022,184.004 43.322,184.110 43.415 C 184.398 43.665,187.958 48.458,188.040 48.705 C 188.137 48.995,192.667 49.120,192.667 48.833 C 192.667 48.726,192.228 48.064,191.691 47.361 C 191.155 46.658,190.669 45.952,190.613 45.792 C 190.557 45.631,190.433 45.500,190.339 45.500 C 190.244 45.500,190.167 45.394,190.167 45.264 C 190.167 45.134,190.104 45.003,190.028 44.972 C 189.873 44.910,188.000 42.404,188.000 42.259 C 188.000 42.208,188.583 42.167,189.295 42.167 C 192.004 42.167,192.683 41.120,192.683 36.945 C 192.683 33.402,192.505 32.828,191.178 32.106 L 190.372 31.667 184.019 31.667 L 177.667 31.667 177.667 40.333 M197.124 32.158 C 195.662 33.085,195.667 33.059,195.667 40.233 C 195.667 49.525,195.143 49.000,204.411 49.000 L 210.667 49.000 210.667 47.417 L 210.667 45.833 204.750 45.833 L 198.833 45.833 198.833 43.919 L 198.833 42.004 204.708 41.960 L 210.583 41.917 210.631 40.292 L 210.679 38.667 204.756 38.667 L 198.833 38.667 198.833 36.750 L 198.833 34.833 204.750 34.833 L 210.667 34.833 210.667 33.250 L 210.667 31.667 204.283 31.667 L 197.899 31.667 197.124 32.158 M214.231 31.958 C 212.541 32.918,212.367 33.352,212.349 36.636 C 212.321 41.808,212.569 41.998,219.375 41.999 L 223.667 42.000 223.667 43.748 L 223.667 45.496 218.042 45.539 L 212.417 45.583 212.369 47.297 L 212.322 49.011 218.869 48.964 C 226.245 48.911,225.864 48.978,226.959 47.544 C 227.409 46.953,227.418 46.900,227.470 44.186 C 227.573 38.865,227.325 38.669,220.458 38.668 L 216.167 38.667 216.167 36.750 L 216.167 34.833 221.833 34.833 L 227.500 34.833 227.500 33.250 L 227.500 31.667 221.122 31.667 C 215.355 31.667,214.696 31.695,214.231 31.958 M239.273 32.078 C 238.940 32.305,238.667 32.449,238.667 32.400 C 238.667 32.168,238.128 32.885,237.911 33.405 C 237.553 34.262,237.558 39.702,237.917 40.000 C 238.238 40.267,238.234 40.570,237.907 40.841 C 237.688 41.023,237.652 41.514,237.677 43.987 C 237.706 47.009,237.762 47.292,238.460 48.000 C 239.429 48.984,239.395 48.977,243.778 48.994 C 248.106 49.011,248.538 48.942,249.183 48.128 C 249.473 47.762,249.928 47.938,250.716 48.719 C 251.261 49.259,251.414 48.983,251.465 47.367 L 251.512 45.845 250.929 45.464 L 250.345 45.083 250.298 43.333 L 250.250 41.583 248.635 41.536 L 247.020 41.488 246.968 42.160 L 246.917 42.832 246.180 42.343 L 245.443 41.854 245.890 41.742 C 246.136 41.680,246.637 41.290,247.002 40.875 L 247.667 40.120 247.667 36.837 L 247.667 33.554 247.208 32.947 C 246.175 31.580,240.865 30.998,239.273 32.078 M261.411 32.045 C 261.359 32.253,261.339 32.947,261.367 33.587 L 261.417 34.750 263.792 34.796 L 266.167 34.842 266.167 40.338 L 266.167 45.833 263.766 45.833 L 261.366 45.833 261.391 47.375 L 261.417 48.917 267.708 48.960 L 274.000 49.004 274.000 47.419 L 274.000 45.833 271.667 45.833 L 269.333 45.833 269.333 40.333 L 269.333 34.833 271.667 34.833 L 274.000 34.833 274.000 33.250 L 274.000 31.667 267.753 31.667 L 261.506 31.667 261.411 32.045 M276.399 31.930 C 276.454 32.075,276.500 35.975,276.500 40.597 L 276.500 49.000 278.081 49.000 L 279.662 49.000 279.706 43.292 L 279.750 37.583 280.678 38.750 C 281.188 39.392,281.922 40.385,282.309 40.958 C 282.696 41.531,283.085 42.000,283.173 42.000 C 283.261 42.000,283.333 42.101,283.333 42.224 C 283.333 42.347,283.523 42.666,283.756 42.932 C 283.988 43.199,284.813 44.287,285.590 45.350 C 286.367 46.413,287.151 47.419,287.334 47.584 C 287.517 47.750,287.667 47.986,287.667 48.109 C 287.667 48.232,287.754 48.333,287.861 48.333 C 287.968 48.333,288.009 48.380,287.952 48.437 C 287.616 48.773,288.403 49.000,289.905 49.000 L 291.500 49.000 291.500 40.333 L 291.500 31.667 289.919 31.667 L 288.338 31.667 288.294 37.430 L 288.250 43.193 287.750 42.494 C 287.475 42.110,287.019 41.523,286.736 41.190 C 286.453 40.856,286.080 40.340,285.908 40.042 C 285.736 39.744,285.542 39.500,285.478 39.500 C 285.413 39.500,285.188 39.219,284.976 38.875 C 284.765 38.531,284.026 37.500,283.333 36.583 C 282.641 35.667,281.932 34.693,281.758 34.419 C 281.584 34.146,281.264 33.733,281.047 33.503 C 280.830 33.272,280.450 32.765,280.201 32.375 L 279.750 31.667 278.024 31.667 C 276.518 31.667,276.311 31.700,276.399 31.930 M293.778 31.778 C 293.717 31.839,293.667 32.551,293.667 33.361 L 293.667 34.833 296.667 34.833 L 299.667 34.833 299.667 41.917 L 299.667 49.000 301.333 49.000 L 303.000 49.000 303.000 41.917 L 303.000 34.833 305.917 34.833 L 308.833 34.833 308.833 33.250 L 308.833 31.667 301.361 31.667 C 297.251 31.667,293.839 31.717,293.778 31.778 M312.750 31.929 C 310.899 32.891,310.845 33.130,310.849 40.250 C 310.853 46.840,310.882 47.070,311.832 47.999 C 312.851 48.995,312.889 49.000,319.745 49.000 L 326.000 49.000 326.000 47.417 L 326.000 45.833 320.083 45.833 L 314.167 45.833 314.167 43.917 L 314.167 42.000 320.083 42.000 L 326.000 42.000 326.000 40.333 L 326.000 38.667 320.083 38.667 L 314.167 38.667 314.167 36.752 L 314.167 34.838 320.042 34.794 L 325.917 34.750 325.965 33.208 L 326.013 31.667 319.631 31.668 C 314.176 31.669,313.177 31.706,312.750 31.929 M328.040 40.286 L 328.083 48.917 329.708 48.964 L 331.333 49.012 331.333 45.589 L 331.333 42.167 332.458 42.167 L 333.583 42.167 334.175 42.959 C 334.500 43.394,335.384 44.575,336.140 45.583 C 336.895 46.592,337.569 47.492,337.637 47.583 C 337.704 47.675,337.973 48.031,338.233 48.375 L 338.706 49.000 340.853 49.000 C 343.307 49.000,343.359 48.961,342.417 47.833 C 342.096 47.449,341.833 47.085,341.833 47.023 C 341.833 46.930,341.195 46.090,340.333 45.049 C 340.242 44.938,340.167 44.804,340.167 44.750 C 340.167 44.638,340.040 44.475,339.325 43.667 C 339.042 43.346,338.700 42.877,338.567 42.625 L 338.325 42.167 339.637 42.167 C 342.417 42.167,342.999 41.249,342.999 36.859 C 343.000 33.224,342.947 33.022,341.768 32.205 L 341.112 31.750 334.555 31.703 L 327.997 31.656 328.040 40.286 M345.500 33.250 L 345.500 34.833 347.833 34.833 L 350.167 34.833 350.167 40.333 L 350.167 45.833 347.833 45.833 L 345.500 45.833 345.500 47.419 L 345.500 49.004 351.792 48.960 L 358.083 48.917 358.131 47.375 L 358.179 45.833 355.756 45.833 L 353.333 45.833 353.333 40.338 L 353.333 34.842 355.708 34.796 L 358.083 34.750 358.131 33.208 L 358.179 31.667 351.840 31.667 L 345.500 31.667 345.500 33.250 M362.406 31.965 C 360.533 33.010,360.592 32.765,360.531 39.750 C 360.470 46.833,360.480 46.942,361.301 47.810 C 362.458 49.032,362.246 49.000,369.314 49.000 C 378.616 49.000,378.167 49.459,378.116 40.000 L 378.083 34.083 377.603 33.216 C 376.741 31.661,376.765 31.665,369.293 31.674 C 363.599 31.680,362.862 31.711,362.406 31.965 M381.000 40.334 L 381.000 49.012 382.625 48.964 L 384.250 48.917 384.295 45.542 L 384.340 42.167 385.481 42.167 L 386.621 42.167 387.102 42.875 C 387.367 43.265,387.719 43.733,387.886 43.917 C 388.052 44.100,388.456 44.653,388.784 45.146 C 389.111 45.639,389.519 46.162,389.690 46.308 C 389.860 46.455,390.000 46.638,390.000 46.716 C 390.000 46.794,390.394 47.339,390.875 47.927 L 391.750 48.996 393.875 48.998 C 396.266 49.000,396.209 49.040,395.415 47.914 C 395.094 47.457,394.633 46.786,394.391 46.424 C 394.150 46.061,393.738 45.536,393.476 45.257 C 393.215 44.978,392.892 44.521,392.758 44.241 C 392.625 43.961,392.354 43.587,392.157 43.408 C 391.960 43.230,391.692 42.878,391.562 42.625 L 391.325 42.167 392.496 42.146 C 393.749 42.124,393.745 42.124,394.250 41.920 C 395.686 41.338,396.000 40.429,396.000 36.855 C 395.999 33.470,395.892 33.090,394.694 32.254 L 393.972 31.750 387.486 31.703 L 381.000 31.655 381.000 40.334 M104.333 36.917 L 104.333 39.000 100.083 39.000 L 95.833 39.000 95.833 36.917 L 95.833 34.833 100.083 34.833 L 104.333 34.833 104.333 36.917 M189.500 36.917 L 189.500 39.000 185.167 39.000 L 180.833 39.000 180.833 36.917 L 180.833 34.833 185.167 34.833 L 189.500 34.833 189.500 36.917 M244.500 36.750 L 244.500 38.667 242.667 38.667 L 240.833 38.667 240.833 36.750 L 240.833 34.833 242.667 34.833 L 244.500 34.833 244.500 36.750 M340.000 36.917 L 340.000 39.000 335.667 39.000 L 331.333 39.000 331.333 36.917 L 331.333 34.833 335.667 34.833 L 340.000 34.833 340.000 36.917 M374.833 40.333 L 374.833 45.833 369.333 45.833 L 363.833 45.833 363.833 40.333 L 363.833 34.833 369.333 34.833 L 374.833 34.833 374.833 40.333 M392.833 36.917 L 392.833 39.000 388.583 39.000 L 384.333 39.000 384.333 36.917 L 384.333 34.833 388.583 34.833 L 392.833 34.833 392.833 36.917 M241.881 42.785 C 242.344 43.125,242.930 43.519,243.182 43.660 C 243.884 44.053,246.333 45.690,246.333 45.766 C 246.333 45.803,245.096 45.833,243.583 45.833 L 240.833 45.833 240.833 44.000 C 240.833 41.904,240.774 41.972,241.881 42.785 " stroke="none" fill="#fcc304" fill-rule="evenodd"></path><path id="path1" d="M0.000 16.667 L 0.000 33.333 8.250 33.333 L 16.500 33.333 16.500 25.083 L 16.500 16.833 24.750 16.833 L 33.000 16.833 33.000 8.417 L 33.000 0.000 16.500 0.000 L 0.000 0.000 0.000 16.667 M126.083 6.444 C 124.644 7.202,124.310 7.985,124.208 10.835 C 124.110 13.533,124.309 14.724,124.973 15.427 C 125.914 16.423,125.853 16.412,130.958 16.468 L 135.667 16.519 135.667 18.257 L 135.667 19.996 129.958 20.039 L 124.250 20.083 124.203 21.792 L 124.155 23.500 130.651 23.500 C 134.871 23.500,137.184 23.441,137.252 23.331 C 137.309 23.237,137.413 23.196,137.482 23.239 C 137.755 23.407,139.131 21.913,139.314 21.250 C 139.543 20.419,139.564 15.667,139.339 15.667 C 139.250 15.667,139.218 15.561,139.267 15.432 C 139.407 15.068,138.898 14.233,138.222 13.717 L 137.610 13.250 132.888 13.195 L 128.167 13.140 128.167 11.236 L 128.167 9.333 133.833 9.333 L 139.500 9.333 139.500 7.750 L 139.500 6.167 133.042 6.173 C 127.483 6.179,126.514 6.217,126.083 6.444 M144.127 6.407 C 142.245 7.389,142.347 6.853,142.337 15.786 L 142.327 23.500 143.914 23.500 L 145.500 23.500 145.500 20.583 L 145.500 17.667 149.841 17.667 L 154.182 17.667 154.132 20.584 L 154.083 23.500 155.708 23.500 L 157.333 23.500 157.333 16.108 C 157.333 8.961,157.254 7.667,156.817 7.667 C 156.734 7.667,156.667 7.553,156.667 7.413 C 156.667 7.273,156.314 6.936,155.884 6.663 L 155.101 6.167 149.842 6.168 C 145.613 6.169,144.494 6.215,144.127 6.407 M162.044 6.495 C 160.308 7.441,160.341 7.253,160.337 16.042 L 160.333 23.500 161.917 23.500 L 163.500 23.500 163.500 16.667 L 163.500 9.833 166.000 9.833 L 168.500 9.833 168.500 16.667 L 168.500 23.500 170.167 23.500 L 171.833 23.500 171.833 16.667 L 171.833 9.833 174.417 9.833 L 177.000 9.833 177.000 16.667 L 177.000 23.500 178.667 23.500 L 180.333 23.500 180.333 16.113 L 180.333 8.726 179.875 7.828 C 179.098 6.305,178.659 6.167,174.594 6.167 C 171.183 6.167,170.753 6.238,170.313 6.882 C 170.256 6.965,169.919 6.843,169.563 6.610 C 168.708 6.050,163.020 5.963,162.044 6.495 M192.250 6.486 C 190.702 7.473,190.500 8.041,190.500 11.417 C 190.500 16.283,190.796 16.500,197.442 16.500 L 201.833 16.500 201.833 18.250 L 201.833 20.000 196.182 20.000 L 190.531 20.000 190.557 21.708 L 190.583 23.417 197.036 23.453 L 203.489 23.489 204.195 22.950 C 205.462 21.984,205.539 21.722,205.534 18.416 C 205.528 14.420,204.744 12.916,202.802 13.177 C 202.682 13.193,200.690 13.197,198.375 13.186 L 194.167 13.167 194.167 11.250 L 194.167 9.333 199.833 9.333 L 205.500 9.333 205.500 8.014 C 205.500 7.288,205.546 6.575,205.601 6.430 C 205.773 5.983,192.955 6.037,192.250 6.486 M207.333 7.750 L 207.333 9.333 210.333 9.333 L 213.333 9.333 213.333 16.417 L 213.333 23.500 214.833 23.500 L 216.333 23.500 216.333 16.417 L 216.333 9.333 219.333 9.333 L 222.333 9.333 222.333 7.750 L 222.333 6.167 214.833 6.167 L 207.333 6.167 207.333 7.750 M225.940 6.669 C 224.486 7.591,224.508 7.447,224.504 16.042 L 224.500 23.500 226.167 23.500 L 227.833 23.500 227.833 20.583 L 227.833 17.667 232.083 17.667 L 236.333 17.667 236.333 20.583 L 236.333 23.500 237.917 23.500 L 239.500 23.500 239.500 16.104 C 239.500 5.457,240.039 6.167,231.956 6.167 L 226.732 6.167 225.940 6.669 M242.500 14.833 L 242.500 23.500 244.125 23.500 L 245.750 23.500 245.704 17.635 L 245.658 11.769 246.500 12.968 C 246.963 13.627,247.415 14.167,247.504 14.167 C 247.594 14.167,247.667 14.275,247.667 14.406 C 247.667 14.538,247.896 14.894,248.177 15.198 C 248.457 15.502,249.023 16.237,249.433 16.833 C 250.652 18.604,251.371 19.568,251.670 19.833 C 251.825 19.971,252.001 20.233,252.060 20.417 C 252.120 20.600,252.465 21.069,252.828 21.458 C 253.190 21.848,253.446 22.167,253.396 22.167 C 253.346 22.167,253.543 22.467,253.833 22.833 L 254.361 23.500 256.014 23.500 L 257.667 23.500 257.667 14.827 L 257.667 6.155 256.042 6.202 L 254.417 6.250 254.333 12.000 C 254.286 15.279,254.191 17.589,254.114 17.375 C 254.039 17.169,253.909 17.000,253.825 17.000 C 253.742 17.000,253.529 16.719,253.352 16.375 C 253.175 16.031,252.799 15.530,252.515 15.260 C 252.232 14.991,252.000 14.710,252.000 14.636 C 252.000 14.458,249.780 11.468,249.435 11.182 C 249.287 11.059,249.167 10.890,249.167 10.806 C 249.167 10.646,248.989 10.408,248.396 9.771 C 248.202 9.562,247.946 9.209,247.829 8.987 C 247.580 8.518,246.475 7.109,246.292 7.028 C 246.223 6.997,246.167 6.869,246.167 6.742 C 246.167 6.331,245.551 6.167,244.011 6.167 L 242.500 6.167 242.500 14.833 M260.540 14.792 L 260.583 23.417 266.911 23.460 C 276.206 23.525,275.664 24.067,275.666 14.703 C 275.667 5.623,276.230 6.167,266.837 6.167 L 260.497 6.167 260.540 14.792 M280.149 6.613 C 278.697 7.421,278.756 7.040,278.702 15.792 L 278.654 23.500 280.160 23.500 L 281.667 23.500 281.667 20.583 L 281.667 17.667 286.091 17.667 L 290.515 17.667 290.466 20.584 L 290.417 23.500 292.042 23.500 L 293.667 23.500 293.667 16.208 C 293.666 7.722,293.660 7.682,292.249 6.708 L 291.464 6.167 286.190 6.176 L 280.917 6.186 280.149 6.613 M296.667 14.828 L 296.667 23.500 298.250 23.500 L 299.833 23.500 299.833 20.167 L 299.833 16.833 301.059 16.833 L 302.285 16.833 302.984 17.829 C 303.368 18.377,303.787 18.930,303.915 19.058 C 304.043 19.186,304.322 19.548,304.536 19.862 C 304.749 20.177,305.203 20.776,305.545 21.193 C 305.887 21.610,306.169 22.018,306.171 22.100 C 306.174 22.183,306.399 22.469,306.671 22.736 C 306.944 23.003,307.167 23.285,307.167 23.361 C 307.167 23.438,308.179 23.500,309.417 23.500 C 311.894 23.500,311.988 23.452,311.230 22.583 C 310.991 22.308,310.626 21.821,310.421 21.500 C 310.215 21.179,309.821 20.676,309.545 20.381 C 309.270 20.086,309.084 19.805,309.133 19.756 C 309.182 19.707,309.135 19.667,309.028 19.667 C 308.921 19.667,308.833 19.579,308.833 19.472 C 308.833 19.365,308.721 19.159,308.584 19.014 C 308.108 18.509,307.500 17.701,307.500 17.572 C 307.500 17.501,307.376 17.306,307.224 17.138 C 306.961 16.847,306.982 16.833,307.683 16.821 C 309.205 16.795,309.875 16.600,310.589 15.973 C 311.615 15.071,311.667 14.855,311.667 11.417 C 311.667 7.913,311.627 7.759,310.476 6.833 L 309.750 6.250 303.208 6.203 L 296.667 6.156 296.667 14.828 M314.667 14.833 L 314.667 23.500 321.027 23.500 L 327.387 23.500 328.099 23.083 C 328.491 22.853,328.859 22.516,328.917 22.333 C 328.975 22.150,329.092 22.000,329.178 22.000 C 329.263 22.000,329.321 21.944,329.306 21.875 C 329.292 21.806,329.363 21.548,329.465 21.302 C 329.589 21.003,329.655 18.896,329.662 15.000 C 329.681 5.641,330.199 6.167,320.947 6.167 L 314.667 6.167 314.667 14.833 M154.167 11.833 L 154.167 14.333 149.833 14.333 L 145.500 14.333 145.500 11.833 L 145.500 9.333 149.833 9.333 L 154.167 9.333 154.167 11.833 M236.333 11.833 L 236.333 14.333 232.083 14.333 L 227.833 14.333 227.833 11.833 L 227.833 9.333 232.083 9.333 L 236.333 9.333 236.333 11.833 M272.500 14.833 L 272.500 20.333 268.167 20.333 L 263.833 20.333 263.833 14.833 L 263.833 9.333 268.167 9.333 L 272.500 9.333 272.500 14.833 M290.500 11.833 L 290.500 14.333 286.083 14.333 L 281.667 14.333 281.667 11.833 L 281.667 9.333 286.083 9.333 L 290.500 9.333 290.500 11.833 M308.500 11.417 L 308.500 13.500 304.167 13.500 L 299.833 13.500 299.833 11.417 L 299.833 9.333 304.167 9.333 L 308.500 9.333 308.500 11.417 M326.333 14.833 L 326.333 20.333 322.083 20.333 L 317.833 20.333 317.833 14.833 L 317.833 9.333 322.083 9.333 L 326.333 9.333 326.333 14.833 M33.333 25.167 L 33.333 33.500 25.083 33.500 L 16.833 33.500 16.833 41.740 C 16.833 47.573,16.887 50.014,17.017 50.094 C 17.119 50.157,24.581 50.152,33.601 50.084 L 50.000 49.959 50.000 33.396 L 50.000 16.833 41.667 16.833 L 33.333 16.833 33.333 25.167 M142.392 33.250 C 142.392 34.075,142.420 34.434,142.455 34.047 C 142.490 33.660,142.490 32.985,142.456 32.547 C 142.422 32.109,142.393 32.425,142.392 33.250 " stroke="none" fill="#ec7c34" fill-rule="evenodd"></path><path id="path2" d="M205.559 7.917 C 205.559 8.742,205.587 9.100,205.622 8.713 C 205.657 8.327,205.657 7.652,205.623 7.213 C 205.588 6.775,205.560 7.092,205.559 7.917 M154.067 11.833 C 154.067 13.254,154.093 13.835,154.124 13.125 C 154.155 12.415,154.155 11.252,154.124 10.542 C 154.093 9.831,154.067 10.412,154.067 11.833 M272.408 14.833 C 272.408 17.904,272.431 19.160,272.458 17.625 C 272.486 16.090,272.486 13.577,272.458 12.042 C 272.431 10.506,272.408 11.762,272.408 14.833 M281.734 11.833 C 281.734 13.254,281.759 13.835,281.791 13.125 C 281.822 12.415,281.822 11.252,281.791 10.542 C 281.759 9.831,281.734 10.412,281.734 11.833 M163.576 16.583 C 163.576 20.342,163.598 21.903,163.625 20.053 C 163.652 18.203,163.652 15.128,163.625 13.219 C 163.598 11.311,163.576 12.825,163.576 16.583 M245.742 17.583 C 245.742 20.792,245.764 22.081,245.791 20.448 C 245.819 18.815,245.819 16.190,245.791 14.614 C 245.764 13.039,245.742 14.375,245.742 17.583 M205.564 18.250 C 205.564 19.350,205.591 19.778,205.624 19.202 C 205.656 18.625,205.656 17.725,205.623 17.202 C 205.590 16.678,205.563 17.150,205.564 18.250 M154.069 20.500 C 154.069 22.104,154.094 22.760,154.124 21.958 C 154.155 21.156,154.155 19.844,154.124 19.042 C 154.094 18.240,154.069 18.896,154.069 20.500 M281.736 20.583 C 281.736 22.233,281.761 22.886,281.791 22.033 C 281.821 21.181,281.821 19.831,281.791 19.033 C 281.760 18.236,281.735 18.933,281.736 20.583 " stroke="none" fill="#ec842c" fill-rule="evenodd"></path><path id="path3" d="M33.244 25.167 C 33.244 29.704,33.265 31.560,33.292 29.292 C 33.318 27.023,33.318 23.310,33.292 21.042 C 33.265 18.773,33.244 20.629,33.244 25.167 M92.577 40.333 C 92.577 45.054,92.599 46.985,92.625 44.625 C 92.651 42.265,92.651 38.402,92.625 36.042 C 92.599 33.681,92.577 35.612,92.577 40.333 M159.576 38.833 C 159.576 42.729,159.598 44.323,159.625 42.375 C 159.651 40.427,159.651 37.240,159.625 35.292 C 159.598 33.344,159.576 34.938,159.576 38.833 M74.576 38.833 C 74.576 42.637,74.598 44.194,74.625 42.292 C 74.652 40.390,74.652 37.277,74.625 35.375 C 74.598 33.473,74.576 35.029,74.576 38.833 M128.224 33.250 C 128.224 33.983,128.254 34.263,128.289 33.871 C 128.324 33.479,128.324 32.879,128.288 32.537 C 128.252 32.196,128.223 32.517,128.224 33.250 M276.411 40.417 C 276.411 45.092,276.432 47.028,276.458 44.720 C 276.484 42.412,276.484 38.587,276.458 36.220 C 276.432 33.853,276.411 35.742,276.411 40.417 M132.908 40.333 C 132.908 43.404,132.931 44.660,132.958 43.125 C 132.986 41.590,132.986 39.077,132.958 37.542 C 132.931 36.006,132.908 37.262,132.908 40.333 M192.730 36.917 C 192.731 38.017,192.758 38.445,192.790 37.868 C 192.823 37.292,192.823 36.392,192.790 35.868 C 192.757 35.345,192.730 35.817,192.730 36.917 M113.742 43.167 C 113.742 46.421,113.764 47.752,113.791 46.125 C 113.819 44.498,113.819 41.835,113.791 40.208 C 113.764 38.581,113.742 39.912,113.742 43.167 M128.225 47.500 C 128.225 48.279,128.254 48.598,128.289 48.208 C 128.324 47.819,128.324 47.181,128.289 46.792 C 128.254 46.402,128.225 46.721,128.225 47.500 " stroke="none" fill="#fcac14" fill-rule="evenodd"></path><path id="path4" d="M290.400 11.833 C 290.400 13.254,290.426 13.835,290.457 13.125 C 290.488 12.415,290.488 11.252,290.457 10.542 C 290.426 9.831,290.400 10.412,290.400 11.833 M16.577 24.917 C 16.577 29.408,16.599 31.222,16.625 28.947 C 16.651 26.672,16.651 22.997,16.625 20.780 C 16.599 18.564,16.577 20.425,16.577 24.917 M290.402 20.500 C 290.402 22.104,290.427 22.760,290.457 21.958 C 290.488 21.156,290.488 19.844,290.457 19.042 C 290.427 18.240,290.402 18.896,290.402 20.500 M140.892 33.250 C 140.892 34.075,140.920 34.434,140.955 34.047 C 140.990 33.660,140.990 32.985,140.956 32.547 C 140.922 32.109,140.893 32.425,140.892 33.250 M20.875 33.458 C 23.144 33.484,26.856 33.484,29.125 33.458 C 31.394 33.432,29.538 33.411,25.000 33.411 C 20.462 33.411,18.606 33.432,20.875 33.458 M140.892 47.417 C 140.892 48.242,140.920 48.600,140.955 48.213 C 140.990 47.827,140.990 47.152,140.956 46.713 C 140.922 46.275,140.893 46.592,140.892 47.417 " stroke="none" fill="#f49034" fill-rule="evenodd"></path><path id="path0" d="M16.628 25.183 C 16.603 29.775,16.640 33.567,16.708 33.609 C 16.777 33.652,16.833 33.607,16.833 33.510 C 16.833 33.388,19.362 33.333,24.997 33.333 L 33.161 33.333 33.205 25.083 L 33.250 16.833 24.961 16.833 L 16.673 16.833 16.628 25.183 M59.566 32.066 C 57.977 32.806,58.000 32.665,58.000 41.469 L 58.000 49.000 59.583 49.000 L 61.167 49.000 61.167 45.502 L 61.167 42.004 67.042 41.960 L 72.917 41.917 72.964 40.292 L 73.012 38.667 67.089 38.667 L 61.167 38.667 61.167 36.750 L 61.167 34.833 67.083 34.833 L 73.000 34.833 73.000 33.250 L 73.000 31.667 66.708 31.668 C 60.435 31.670,60.414 31.671,59.566 32.066 M74.666 31.708 C 74.557 38.576,74.685 46.718,74.908 47.149 C 75.848 48.968,76.113 49.030,82.587 48.967 L 87.758 48.917 88.479 48.250 C 89.724 47.099,89.667 47.535,89.667 39.175 L 89.667 31.667 88.083 31.667 L 86.500 31.667 86.500 38.750 L 86.500 45.833 82.167 45.833 L 77.833 45.833 77.833 38.750 L 77.833 31.667 76.250 31.667 C 75.379 31.667,74.666 31.685,74.666 31.708 M92.667 40.333 L 92.667 49.000 94.250 49.000 L 95.833 49.000 95.833 45.583 L 95.833 42.167 97.042 42.168 C 98.180 42.169,98.266 42.195,98.530 42.626 C 98.684 42.878,99.527 44.021,100.404 45.167 C 101.281 46.313,102.112 47.400,102.251 47.583 C 102.390 47.767,102.696 48.160,102.933 48.458 L 103.363 49.000 105.422 49.000 C 107.893 49.000,107.923 48.979,107.022 47.867 C 106.271 46.938,104.072 43.940,103.774 43.438 C 103.604 43.151,103.305 42.767,103.110 42.583 L 102.755 42.250 104.086 42.149 C 107.272 41.907,107.730 41.178,107.639 36.482 L 107.583 33.583 107.086 32.933 C 106.132 31.686,106.058 31.674,98.958 31.670 L 92.667 31.667 92.667 40.333 M110.540 40.292 L 110.583 48.917 112.125 48.965 L 113.667 49.013 113.667 43.161 C 113.667 38.473,113.708 37.353,113.875 37.530 C 114.257 37.934,116.580 41.065,116.816 41.494 C 116.944 41.726,117.098 41.954,117.159 42.000 C 117.365 42.156,119.435 44.915,119.754 45.458 C 119.929 45.756,120.118 46.000,120.173 46.000 C 120.229 46.000,120.715 46.619,121.253 47.375 C 122.476 49.095,122.297 48.994,124.125 48.997 L 125.667 49.000 125.667 40.333 L 125.667 31.667 124.083 31.667 L 122.500 31.667 122.487 37.542 C 122.480 40.773,122.431 43.304,122.378 43.167 C 122.325 43.029,122.031 42.656,121.724 42.338 C 121.417 42.019,121.123 41.625,121.071 41.463 C 121.020 41.300,120.895 41.167,120.794 41.167 C 120.694 41.167,120.658 41.120,120.714 41.063 C 120.771 41.007,120.727 40.869,120.617 40.758 C 120.507 40.646,120.079 40.082,119.667 39.504 C 119.254 38.925,118.710 38.235,118.458 37.970 C 118.206 37.705,118.000 37.416,118.000 37.328 C 118.000 37.239,117.866 37.032,117.701 36.868 C 117.537 36.704,117.068 36.116,116.660 35.561 C 116.251 35.007,115.429 33.904,114.834 33.110 L 113.751 31.667 112.124 31.667 L 110.497 31.667 110.540 40.292 M128.326 31.750 C 128.322 31.796,128.315 32.490,128.310 33.292 L 128.303 34.750 130.651 34.796 L 133.000 34.842 133.000 40.338 L 133.000 45.833 130.566 45.833 C 128.414 45.833,128.143 45.864,128.232 46.097 C 128.288 46.242,128.333 46.954,128.333 47.680 L 128.333 49.000 134.572 49.000 L 140.810 49.000 140.864 47.416 L 140.917 45.833 138.542 45.833 L 136.167 45.833 136.167 40.333 L 136.167 34.833 138.500 34.833 L 140.833 34.833 140.833 33.250 L 140.833 31.667 134.583 31.667 C 131.146 31.667,128.330 31.704,128.326 31.750 M142.500 33.248 L 142.500 34.833 145.415 34.833 L 148.330 34.833 148.373 41.875 L 148.417 48.917 150.042 48.964 L 151.667 49.012 151.667 41.923 L 151.667 34.833 154.673 34.833 L 157.679 34.833 157.631 33.292 L 157.583 31.750 150.042 31.707 L 142.500 31.663 142.500 33.248 M159.628 38.875 C 159.562 49.484,159.208 49.000,167.042 49.000 C 175.201 49.000,174.802 49.523,174.817 38.792 L 174.826 31.667 173.163 31.667 L 171.500 31.667 171.500 38.750 L 171.500 45.833 167.167 45.833 L 162.833 45.833 162.833 38.750 L 162.833 31.667 161.253 31.667 L 159.674 31.667 159.628 38.875 M177.667 40.333 L 177.667 49.000 179.250 49.000 L 180.833 49.000 180.833 45.576 L 180.833 42.153 182.094 42.201 C 183.300 42.248,183.368 42.272,183.636 42.748 C 183.790 43.022,184.004 43.322,184.110 43.415 C 184.398 43.665,187.958 48.458,188.040 48.705 C 188.137 48.995,192.667 49.120,192.667 48.833 C 192.667 48.726,192.228 48.064,191.691 47.361 C 191.155 46.658,190.669 45.952,190.613 45.792 C 190.557 45.631,190.433 45.500,190.339 45.500 C 190.244 45.500,190.167 45.394,190.167 45.264 C 190.167 45.134,190.104 45.003,190.028 44.972 C 189.873 44.910,188.000 42.404,188.000 42.259 C 188.000 42.208,188.583 42.167,189.295 42.167 C 192.004 42.167,192.683 41.120,192.683 36.945 C 192.683 33.402,192.505 32.828,191.178 32.106 L 190.372 31.667 184.019 31.667 L 177.667 31.667 177.667 40.333 M197.124 32.158 C 195.662 33.085,195.667 33.059,195.667 40.233 C 195.667 49.525,195.143 49.000,204.411 49.000 L 210.667 49.000 210.667 47.417 L 210.667 45.833 204.750 45.833 L 198.833 45.833 198.833 43.919 L 198.833 42.004 204.708 41.960 L 210.583 41.917 210.631 40.292 L 210.679 38.667 204.756 38.667 L 198.833 38.667 198.833 36.750 L 198.833 34.833 204.750 34.833 L 210.667 34.833 210.667 33.250 L 210.667 31.667 204.283 31.667 L 197.899 31.667 197.124 32.158 M214.231 31.958 C 212.541 32.918,212.367 33.352,212.349 36.636 C 212.321 41.808,212.569 41.998,219.375 41.999 L 223.667 42.000 223.667 43.748 L 223.667 45.496 218.042 45.539 L 212.417 45.583 212.369 47.297 L 212.322 49.011 218.869 48.964 C 226.245 48.911,225.864 48.978,226.959 47.544 C 227.409 46.953,227.418 46.900,227.470 44.186 C 227.573 38.865,227.325 38.669,220.458 38.668 L 216.167 38.667 216.167 36.750 L 216.167 34.833 221.833 34.833 L 227.500 34.833 227.500 33.250 L 227.500 31.667 221.122 31.667 C 215.355 31.667,214.696 31.695,214.231 31.958 M239.273 32.078 C 238.940 32.305,238.667 32.449,238.667 32.400 C 238.667 32.168,238.128 32.885,237.911 33.405 C 237.553 34.262,237.558 39.702,237.917 40.000 C 238.238 40.267,238.234 40.570,237.907 40.841 C 237.688 41.023,237.652 41.514,237.677 43.987 C 237.706 47.009,237.762 47.292,238.460 48.000 C 239.429 48.984,239.395 48.977,243.778 48.994 C 248.106 49.011,248.538 48.942,249.183 48.128 C 249.473 47.762,249.928 47.938,250.716 48.719 C 251.261 49.259,251.414 48.983,251.465 47.367 L 251.512 45.845 250.929 45.464 L 250.345 45.083 250.298 43.333 L 250.250 41.583 248.635 41.536 L 247.020 41.488 246.968 42.160 L 246.917 42.832 246.180 42.343 L 245.443 41.854 245.890 41.742 C 246.136 41.680,246.637 41.290,247.002 40.875 L 247.667 40.120 247.667 36.837 L 247.667 33.554 247.208 32.947 C 246.175 31.580,240.865 30.998,239.273 32.078 M261.411 32.045 C 261.359 32.253,261.339 32.947,261.367 33.587 L 261.417 34.750 263.792 34.796 L 266.167 34.842 266.167 40.338 L 266.167 45.833 263.766 45.833 L 261.366 45.833 261.391 47.375 L 261.417 48.917 267.708 48.960 L 274.000 49.004 274.000 47.419 L 274.000 45.833 271.667 45.833 L 269.333 45.833 269.333 40.333 L 269.333 34.833 271.667 34.833 L 274.000 34.833 274.000 33.250 L 274.000 31.667 267.753 31.667 L 261.506 31.667 261.411 32.045 M276.399 31.930 C 276.454 32.075,276.500 35.975,276.500 40.597 L 276.500 49.000 278.081 49.000 L 279.662 49.000 279.706 43.292 L 279.750 37.583 280.678 38.750 C 281.188 39.392,281.922 40.385,282.309 40.958 C 282.696 41.531,283.085 42.000,283.173 42.000 C 283.261 42.000,283.333 42.101,283.333 42.224 C 283.333 42.347,283.523 42.666,283.756 42.932 C 283.988 43.199,284.813 44.287,285.590 45.350 C 286.367 46.413,287.151 47.419,287.334 47.584 C 287.517 47.750,287.667 47.986,287.667 48.109 C 287.667 48.232,287.754 48.333,287.861 48.333 C 287.968 48.333,288.009 48.380,287.952 48.437 C 287.616 48.773,288.403 49.000,289.905 49.000 L 291.500 49.000 291.500 40.333 L 291.500 31.667 289.919 31.667 L 288.338 31.667 288.294 37.430 L 288.250 43.193 287.750 42.494 C 287.475 42.110,287.019 41.523,286.736 41.190 C 286.453 40.856,286.080 40.340,285.908 40.042 C 285.736 39.744,285.542 39.500,285.478 39.500 C 285.413 39.500,285.188 39.219,284.976 38.875 C 284.765 38.531,284.026 37.500,283.333 36.583 C 282.641 35.667,281.932 34.693,281.758 34.419 C 281.584 34.146,281.264 33.733,281.047 33.503 C 280.830 33.272,280.450 32.765,280.201 32.375 L 279.750 31.667 278.024 31.667 C 276.518 31.667,276.311 31.700,276.399 31.930 M293.778 31.778 C 293.717 31.839,293.667 32.551,293.667 33.361 L 293.667 34.833 296.667 34.833 L 299.667 34.833 299.667 41.917 L 299.667 49.000 301.333 49.000 L 303.000 49.000 303.000 41.917 L 303.000 34.833 305.917 34.833 L 308.833 34.833 308.833 33.250 L 308.833 31.667 301.361 31.667 C 297.251 31.667,293.839 31.717,293.778 31.778 M312.750 31.929 C 310.899 32.891,310.845 33.130,310.849 40.250 C 310.853 46.840,310.882 47.070,311.832 47.999 C 312.851 48.995,312.889 49.000,319.745 49.000 L 326.000 49.000 326.000 47.417 L 326.000 45.833 320.083 45.833 L 314.167 45.833 314.167 43.917 L 314.167 42.000 320.083 42.000 L 326.000 42.000 326.000 40.333 L 326.000 38.667 320.083 38.667 L 314.167 38.667 314.167 36.752 L 314.167 34.838 320.042 34.794 L 325.917 34.750 325.965 33.208 L 326.013 31.667 319.631 31.668 C 314.176 31.669,313.177 31.706,312.750 31.929 M328.040 40.286 L 328.083 48.917 329.708 48.964 L 331.333 49.012 331.333 45.589 L 331.333 42.167 332.458 42.167 L 333.583 42.167 334.175 42.959 C 334.500 43.394,335.384 44.575,336.140 45.583 C 336.895 46.592,337.569 47.492,337.637 47.583 C 337.704 47.675,337.973 48.031,338.233 48.375 L 338.706 49.000 340.853 49.000 C 343.307 49.000,343.359 48.961,342.417 47.833 C 342.096 47.449,341.833 47.085,341.833 47.023 C 341.833 46.930,341.195 46.090,340.333 45.049 C 340.242 44.938,340.167 44.804,340.167 44.750 C 340.167 44.638,340.040 44.475,339.325 43.667 C 339.042 43.346,338.700 42.877,338.567 42.625 L 338.325 42.167 339.637 42.167 C 342.417 42.167,342.999 41.249,342.999 36.859 C 343.000 33.224,342.947 33.022,341.768 32.205 L 341.112 31.750 334.555 31.703 L 327.997 31.656 328.040 40.286 M345.500 33.250 L 345.500 34.833 347.833 34.833 L 350.167 34.833 350.167 40.333 L 350.167 45.833 347.833 45.833 L 345.500 45.833 345.500 47.419 L 345.500 49.004 351.792 48.960 L 358.083 48.917 358.131 47.375 L 358.179 45.833 355.756 45.833 L 353.333 45.833 353.333 40.338 L 353.333 34.842 355.708 34.796 L 358.083 34.750 358.131 33.208 L 358.179 31.667 351.840 31.667 L 345.500 31.667 345.500 33.250 M362.406 31.965 C 360.533 33.010,360.592 32.765,360.531 39.750 C 360.470 46.833,360.480 46.942,361.301 47.810 C 362.458 49.032,362.246 49.000,369.314 49.000 C 378.616 49.000,378.167 49.459,378.116 40.000 L 378.083 34.083 377.603 33.216 C 376.741 31.661,376.765 31.665,369.293 31.674 C 363.599 31.680,362.862 31.711,362.406 31.965 M381.000 40.334 L 381.000 49.012 382.625 48.964 L 384.250 48.917 384.295 45.542 L 384.340 42.167 385.481 42.167 L 386.621 42.167 387.102 42.875 C 387.367 43.265,387.719 43.733,387.886 43.917 C 388.052 44.100,388.456 44.653,388.784 45.146 C 389.111 45.639,389.519 46.162,389.690 46.308 C 389.860 46.455,390.000 46.638,390.000 46.716 C 390.000 46.794,390.394 47.339,390.875 47.927 L 391.750 48.996 393.875 48.998 C 396.266 49.000,396.209 49.040,395.415 47.914 C 395.094 47.457,394.633 46.786,394.391 46.424 C 394.150 46.061,393.738 45.536,393.476 45.257 C 393.215 44.978,392.892 44.521,392.758 44.241 C 392.625 43.961,392.354 43.587,392.157 43.408 C 391.960 43.230,391.692 42.878,391.562 42.625 L 391.325 42.167 392.496 42.146 C 393.749 42.124,393.745 42.124,394.250 41.920 C 395.686 41.338,396.000 40.429,396.000 36.855 C 395.999 33.470,395.892 33.090,394.694 32.254 L 393.972 31.750 387.486 31.703 L 381.000 31.655 381.000 40.334 M104.333 36.917 L 104.333 39.000 100.083 39.000 L 95.833 39.000 95.833 36.917 L 95.833 34.833 100.083 34.833 L 104.333 34.833 104.333 36.917 M189.500 36.917 L 189.500 39.000 185.167 39.000 L 180.833 39.000 180.833 36.917 L 180.833 34.833 185.167 34.833 L 189.500 34.833 189.500 36.917 M244.500 36.750 L 244.500 38.667 242.667 38.667 L 240.833 38.667 240.833 36.750 L 240.833 34.833 242.667 34.833 L 244.500 34.833 244.500 36.750 M340.000 36.917 L 340.000 39.000 335.667 39.000 L 331.333 39.000 331.333 36.917 L 331.333 34.833 335.667 34.833 L 340.000 34.833 340.000 36.917 M374.833 40.333 L 374.833 45.833 369.333 45.833 L 363.833 45.833 363.833 40.333 L 363.833 34.833 369.333 34.833 L 374.833 34.833 374.833 40.333 M392.833 36.917 L 392.833 39.000 388.583 39.000 L 384.333 39.000 384.333 36.917 L 384.333 34.833 388.583 34.833 L 392.833 34.833 392.833 36.917 M241.881 42.785 C 242.344 43.125,242.930 43.519,243.182 43.660 C 243.884 44.053,246.333 45.690,246.333 45.766 C 246.333 45.803,245.096 45.833,243.583 45.833 L 240.833 45.833 240.833 44.000 C 240.833 41.904,240.774 41.972,241.881 42.785 " stroke="none" fill="#fcc304" fill-rule="evenodd"></path><path id="path1" d="M0.000 16.667 L 0.000 33.333 8.250 33.333 L 16.500 33.333 16.500 25.083 L 16.500 16.833 24.750 16.833 L 33.000 16.833 33.000 8.417 L 33.000 0.000 16.500 0.000 L 0.000 0.000 0.000 16.667 M126.083 6.444 C 124.644 7.202,124.310 7.985,124.208 10.835 C 124.110 13.533,124.309 14.724,124.973 15.427 C 125.914 16.423,125.853 16.412,130.958 16.468 L 135.667 16.519 135.667 18.257 L 135.667 19.996 129.958 20.039 L 124.250 20.083 124.203 21.792 L 124.155 23.500 130.651 23.500 C 134.871 23.500,137.184 23.441,137.252 23.331 C 137.309 23.237,137.413 23.196,137.482 23.239 C 137.755 23.407,139.131 21.913,139.314 21.250 C 139.543 20.419,139.564 15.667,139.339 15.667 C 139.250 15.667,139.218 15.561,139.267 15.432 C 139.407 15.068,138.898 14.233,138.222 13.717 L 137.610 13.250 132.888 13.195 L 128.167 13.140 128.167 11.236 L 128.167 9.333 133.833 9.333 L 139.500 9.333 139.500 7.750 L 139.500 6.167 133.042 6.173 C 127.483 6.179,126.514 6.217,126.083 6.444 M144.127 6.407 C 142.245 7.389,142.347 6.853,142.337 15.786 L 142.327 23.500 143.914 23.500 L 145.500 23.500 145.500 20.583 L 145.500 17.667 149.841 17.667 L 154.182 17.667 154.132 20.584 L 154.083 23.500 155.708 23.500 L 157.333 23.500 157.333 16.108 C 157.333 8.961,157.254 7.667,156.817 7.667 C 156.734 7.667,156.667 7.553,156.667 7.413 C 156.667 7.273,156.314 6.936,155.884 6.663 L 155.101 6.167 149.842 6.168 C 145.613 6.169,144.494 6.215,144.127 6.407 M162.044 6.495 C 160.308 7.441,160.341 7.253,160.337 16.042 L 160.333 23.500 161.917 23.500 L 163.500 23.500 163.500 16.667 L 163.500 9.833 166.000 9.833 L 168.500 9.833 168.500 16.667 L 168.500 23.500 170.167 23.500 L 171.833 23.500 171.833 16.667 L 171.833 9.833 174.417 9.833 L 177.000 9.833 177.000 16.667 L 177.000 23.500 178.667 23.500 L 180.333 23.500 180.333 16.113 L 180.333 8.726 179.875 7.828 C 179.098 6.305,178.659 6.167,174.594 6.167 C 171.183 6.167,170.753 6.238,170.313 6.882 C 170.256 6.965,169.919 6.843,169.563 6.610 C 168.708 6.050,163.020 5.963,162.044 6.495 M192.250 6.486 C 190.702 7.473,190.500 8.041,190.500 11.417 C 190.500 16.283,190.796 16.500,197.442 16.500 L 201.833 16.500 201.833 18.250 L 201.833 20.000 196.182 20.000 L 190.531 20.000 190.557 21.708 L 190.583 23.417 197.036 23.453 L 203.489 23.489 204.195 22.950 C 205.462 21.984,205.539 21.722,205.534 18.416 C 205.528 14.420,204.744 12.916,202.802 13.177 C 202.682 13.193,200.690 13.197,198.375 13.186 L 194.167 13.167 194.167 11.250 L 194.167 9.333 199.833 9.333 L 205.500 9.333 205.500 8.014 C 205.500 7.288,205.546 6.575,205.601 6.430 C 205.773 5.983,192.955 6.037,192.250 6.486 M207.333 7.750 L 207.333 9.333 210.333 9.333 L 213.333 9.333 213.333 16.417 L 213.333 23.500 214.833 23.500 L 216.333 23.500 216.333 16.417 L 216.333 9.333 219.333 9.333 L 222.333 9.333 222.333 7.750 L 222.333 6.167 214.833 6.167 L 207.333 6.167 207.333 7.750 M225.940 6.669 C 224.486 7.591,224.508 7.447,224.504 16.042 L 224.500 23.500 226.167 23.500 L 227.833 23.500 227.833 20.583 L 227.833 17.667 232.083 17.667 L 236.333 17.667 236.333 20.583 L 236.333 23.500 237.917 23.500 L 239.500 23.500 239.500 16.104 C 239.500 5.457,240.039 6.167,231.956 6.167 L 226.732 6.167 225.940 6.669 M242.500 14.833 L 242.500 23.500 244.125 23.500 L 245.750 23.500 245.704 17.635 L 245.658 11.769 246.500 12.968 C 246.963 13.627,247.415 14.167,247.504 14.167 C 247.594 14.167,247.667 14.275,247.667 14.406 C 247.667 14.538,247.896 14.894,248.177 15.198 C 248.457 15.502,249.023 16.237,249.433 16.833 C 250.652 18.604,251.371 19.568,251.670 19.833 C 251.825 19.971,252.001 20.233,252.060 20.417 C 252.120 20.600,252.465 21.069,252.828 21.458 C 253.190 21.848,253.446 22.167,253.396 22.167 C 253.346 22.167,253.543 22.467,253.833 22.833 L 254.361 23.500 256.014 23.500 L 257.667 23.500 257.667 14.827 L 257.667 6.155 256.042 6.202 L 254.417 6.250 254.333 12.000 C 254.286 15.279,254.191 17.589,254.114 17.375 C 254.039 17.169,253.909 17.000,253.825 17.000 C 253.742 17.000,253.529 16.719,253.352 16.375 C 253.175 16.031,252.799 15.530,252.515 15.260 C 252.232 14.991,252.000 14.710,252.000 14.636 C 252.000 14.458,249.780 11.468,249.435 11.182 C 249.287 11.059,249.167 10.890,249.167 10.806 C 249.167 10.646,248.989 10.408,248.396 9.771 C 248.202 9.562,247.946 9.209,247.829 8.987 C 247.580 8.518,246.475 7.109,246.292 7.028 C 246.223 6.997,246.167 6.869,246.167 6.742 C 246.167 6.331,245.551 6.167,244.011 6.167 L 242.500 6.167 242.500 14.833 M260.540 14.792 L 260.583 23.417 266.911 23.460 C 276.206 23.525,275.664 24.067,275.666 14.703 C 275.667 5.623,276.230 6.167,266.837 6.167 L 260.497 6.167 260.540 14.792 M280.149 6.613 C 278.697 7.421,278.756 7.040,278.702 15.792 L 278.654 23.500 280.160 23.500 L 281.667 23.500 281.667 20.583 L 281.667 17.667 286.091 17.667 L 290.515 17.667 290.466 20.584 L 290.417 23.500 292.042 23.500 L 293.667 23.500 293.667 16.208 C 293.666 7.722,293.660 7.682,292.249 6.708 L 291.464 6.167 286.190 6.176 L 280.917 6.186 280.149 6.613 M296.667 14.828 L 296.667 23.500 298.250 23.500 L 299.833 23.500 299.833 20.167 L 299.833 16.833 301.059 16.833 L 302.285 16.833 302.984 17.829 C 303.368 18.377,303.787 18.930,303.915 19.058 C 304.043 19.186,304.322 19.548,304.536 19.862 C 304.749 20.177,305.203 20.776,305.545 21.193 C 305.887 21.610,306.169 22.018,306.171 22.100 C 306.174 22.183,306.399 22.469,306.671 22.736 C 306.944 23.003,307.167 23.285,307.167 23.361 C 307.167 23.438,308.179 23.500,309.417 23.500 C 311.894 23.500,311.988 23.452,311.230 22.583 C 310.991 22.308,310.626 21.821,310.421 21.500 C 310.215 21.179,309.821 20.676,309.545 20.381 C 309.270 20.086,309.084 19.805,309.133 19.756 C 309.182 19.707,309.135 19.667,309.028 19.667 C 308.921 19.667,308.833 19.579,308.833 19.472 C 308.833 19.365,308.721 19.159,308.584 19.014 C 308.108 18.509,307.500 17.701,307.500 17.572 C 307.500 17.501,307.376 17.306,307.224 17.138 C 306.961 16.847,306.982 16.833,307.683 16.821 C 309.205 16.795,309.875 16.600,310.589 15.973 C 311.615 15.071,311.667 14.855,311.667 11.417 C 311.667 7.913,311.627 7.759,310.476 6.833 L 309.750 6.250 303.208 6.203 L 296.667 6.156 296.667 14.828 M314.667 14.833 L 314.667 23.500 321.027 23.500 L 327.387 23.500 328.099 23.083 C 328.491 22.853,328.859 22.516,328.917 22.333 C 328.975 22.150,329.092 22.000,329.178 22.000 C 329.263 22.000,329.321 21.944,329.306 21.875 C 329.292 21.806,329.363 21.548,329.465 21.302 C 329.589 21.003,329.655 18.896,329.662 15.000 C 329.681 5.641,330.199 6.167,320.947 6.167 L 314.667 6.167 314.667 14.833 M154.167 11.833 L 154.167 14.333 149.833 14.333 L 145.500 14.333 145.500 11.833 L 145.500 9.333 149.833 9.333 L 154.167 9.333 154.167 11.833 M236.333 11.833 L 236.333 14.333 232.083 14.333 L 227.833 14.333 227.833 11.833 L 227.833 9.333 232.083 9.333 L 236.333 9.333 236.333 11.833 M272.500 14.833 L 272.500 20.333 268.167 20.333 L 263.833 20.333 263.833 14.833 L 263.833 9.333 268.167 9.333 L 272.500 9.333 272.500 14.833 M290.500 11.833 L 290.500 14.333 286.083 14.333 L 281.667 14.333 281.667 11.833 L 281.667 9.333 286.083 9.333 L 290.500 9.333 290.500 11.833 M308.500 11.417 L 308.500 13.500 304.167 13.500 L 299.833 13.500 299.833 11.417 L 299.833 9.333 304.167 9.333 L 308.500 9.333 308.500 11.417 M326.333 14.833 L 326.333 20.333 322.083 20.333 L 317.833 20.333 317.833 14.833 L 317.833 9.333 322.083 9.333 L 326.333 9.333 326.333 14.833 M33.333 25.167 L 33.333 33.500 25.083 33.500 L 16.833 33.500 16.833 41.740 C 16.833 47.573,16.887 50.014,17.017 50.094 C 17.119 50.157,24.581 50.152,33.601 50.084 L 50.000 49.959 50.000 33.396 L 50.000 16.833 41.667 16.833 L 33.333 16.833 33.333 25.167 M142.392 33.250 C 142.392 34.075,142.420 34.434,142.455 34.047 C 142.490 33.660,142.490 32.985,142.456 32.547 C 142.422 32.109,142.393 32.425,142.392 33.250 " stroke="none" fill="#ec7c34" fill-rule="evenodd"></path><path id="path2" d="M205.559 7.917 C 205.559 8.742,205.587 9.100,205.622 8.713 C 205.657 8.327,205.657 7.652,205.623 7.213 C 205.588 6.775,205.560 7.092,205.559 7.917 M154.067 11.833 C 154.067 13.254,154.093 13.835,154.124 13.125 C 154.155 12.415,154.155 11.252,154.124 10.542 C 154.093 9.831,154.067 10.412,154.067 11.833 M272.408 14.833 C 272.408 17.904,272.431 19.160,272.458 17.625 C 272.486 16.090,272.486 13.577,272.458 12.042 C 272.431 10.506,272.408 11.762,272.408 14.833 M281.734 11.833 C 281.734 13.254,281.759 13.835,281.791 13.125 C 281.822 12.415,281.822 11.252,281.791 10.542 C 281.759 9.831,281.734 10.412,281.734 11.833 M163.576 16.583 C 163.576 20.342,163.598 21.903,163.625 20.053 C 163.652 18.203,163.652 15.128,163.625 13.219 C 163.598 11.311,163.576 12.825,163.576 16.583 M245.742 17.583 C 245.742 20.792,245.764 22.081,245.791 20.448 C 245.819 18.815,245.819 16.190,245.791 14.614 C 245.764 13.039,245.742 14.375,245.742 17.583 M205.564 18.250 C 205.564 19.350,205.591 19.778,205.624 19.202 C 205.656 18.625,205.656 17.725,205.623 17.202 C 205.590 16.678,205.563 17.150,205.564 18.250 M154.069 20.500 C 154.069 22.104,154.094 22.760,154.124 21.958 C 154.155 21.156,154.155 19.844,154.124 19.042 C 154.094 18.240,154.069 18.896,154.069 20.500 M281.736 20.583 C 281.736 22.233,281.761 22.886,281.791 22.033 C 281.821 21.181,281.821 19.831,281.791 19.033 C 281.760 18.236,281.735 18.933,281.736 20.583 " stroke="none" fill="#ec842c" fill-rule="evenodd"></path><path id="path3" d="M33.244 25.167 C 33.244 29.704,33.265 31.560,33.292 29.292 C 33.318 27.023,33.318 23.310,33.292 21.042 C 33.265 18.773,33.244 20.629,33.244 25.167 M92.577 40.333 C 92.577 45.054,92.599 46.985,92.625 44.625 C 92.651 42.265,92.651 38.402,92.625 36.042 C 92.599 33.681,92.577 35.612,92.577 40.333 M159.576 38.833 C 159.576 42.729,159.598 44.323,159.625 42.375 C 159.651 40.427,159.651 37.240,159.625 35.292 C 159.598 33.344,159.576 34.938,159.576 38.833 M74.576 38.833 C 74.576 42.637,74.598 44.194,74.625 42.292 C 74.652 40.390,74.652 37.277,74.625 35.375 C 74.598 33.473,74.576 35.029,74.576 38.833 M128.224 33.250 C 128.224 33.983,128.254 34.263,128.289 33.871 C 128.324 33.479,128.324 32.879,128.288 32.537 C 128.252 32.196,128.223 32.517,128.224 33.250 M276.411 40.417 C 276.411 45.092,276.432 47.028,276.458 44.720 C 276.484 42.412,276.484 38.587,276.458 36.220 C 276.432 33.853,276.411 35.742,276.411 40.417 M132.908 40.333 C 132.908 43.404,132.931 44.660,132.958 43.125 C 132.986 41.590,132.986 39.077,132.958 37.542 C 132.931 36.006,132.908 37.262,132.908 40.333 M192.730 36.917 C 192.731 38.017,192.758 38.445,192.790 37.868 C 192.823 37.292,192.823 36.392,192.790 35.868 C 192.757 35.345,192.730 35.817,192.730 36.917 M113.742 43.167 C 113.742 46.421,113.764 47.752,113.791 46.125 C 113.819 44.498,113.819 41.835,113.791 40.208 C 113.764 38.581,113.742 39.912,113.742 43.167 M128.225 47.500 C 128.225 48.279,128.254 48.598,128.289 48.208 C 128.324 47.819,128.324 47.181,128.289 46.792 C 128.254 46.402,128.225 46.721,128.225 47.500 " stroke="none" fill="#fcac14" fill-rule="evenodd"></path><path id="path4" d="M290.400 11.833 C 290.400 13.254,290.426 13.835,290.457 13.125 C 290.488 12.415,290.488 11.252,290.457 10.542 C 290.426 9.831,290.400 10.412,290.400 11.833 M16.577 24.917 C 16.577 29.408,16.599 31.222,16.625 28.947 C 16.651 26.672,16.651 22.997,16.625 20.780 C 16.599 18.564,16.577 20.425,16.577 24.917 M290.402 20.500 C 290.402 22.104,290.427 22.760,290.457 21.958 C 290.488 21.156,290.488 19.844,290.457 19.042 C 290.427 18.240,290.402 18.896,290.402 20.500 M140.892 33.250 C 140.892 34.075,140.920 34.434,140.955 34.047 C 140.990 33.660,140.990 32.985,140.956 32.547 C 140.922 32.109,140.893 32.425,140.892 33.250 M20.875 33.458 C 23.144 33.484,26.856 33.484,29.125 33.458 C 31.394 33.432,29.538 33.411,25.000 33.411 C 20.462 33.411,18.606 33.432,20.875 33.458 M140.892 47.417 C 140.892 48.242,140.920 48.600,140.955 48.213 C 140.990 47.827,140.990 47.152,140.956 46.713 C 140.922 46.275,140.893 46.592,140.892 47.417 " stroke="none" fill="#f49034" fill-rule="evenodd"></path></g></svg>